<?xml version="1.0" encoding="utf-8"?><svg version="1.1" id="Layer_1" xmlns="http://www.w3.org/2000/svg" xmlns:xlink="http://www.w3.org/1999/xlink" x="0px" y="0px" viewBox="0 0 115.28 122.88" style="enable-background:new 0 0 115.28 122.88" xml:space="preserve"><style type="text/css">.st0{fill-rule:evenodd;clip-rule:evenodd;}</style><g><path fill="white" class="st0" d="M21.69,57h68.56V37.34H69.59c-2.17,0-5.19-1.17-6.62-2.6c-1.43-1.43-2.3-4.01-2.3-6.17V7.64l0,0H8.15 c-0.18,0-0.32,0.09-0.41,0.18C7.59,7.92,7.55,8.05,7.55,8.24v106.45c0,0.14,0.09,0.32,0.18,0.41c0.09,0.14,0.28,0.18,0.41,0.18 c22.78,0,58.09,0,81.51,0c0.18,0,0.17-0.09,0.27-0.18c0.14-0.09,0.33-0.28,0.33-0.41v-11.16H21.69c-4.14,0-7.56-3.4-7.56-7.56 V64.55C14.13,60.4,17.53,57,21.69,57L21.69,57z M29.84,92.05V69.04h11.85c2.2,0,3.88,0.19,5.03,0.57c1.16,0.38,2.1,1.08,2.81,2.09 c0.71,1.02,1.07,2.27,1.07,3.74c0,1.27-0.27,2.38-0.82,3.3c-0.54,0.93-1.29,1.68-2.25,2.26c-0.61,0.36-1.44,0.67-2.5,0.91 c0.85,0.28,1.46,0.56,1.85,0.85c0.26,0.19,0.64,0.59,1.14,1.21c0.49,0.62,0.83,1.09,0.99,1.43l3.45,6.65h-8.03l-3.8-7.02 c-0.48-0.91-0.91-1.5-1.29-1.77c-0.51-0.35-1.1-0.53-1.75-0.53h-0.63v9.32H29.84L29.84,92.05z M36.98,78.39h3 c0.32,0,0.95-0.11,1.89-0.32c0.47-0.09,0.86-0.33,1.15-0.72c0.3-0.39,0.45-0.84,0.45-1.34c0-0.74-0.24-1.32-0.71-1.71 c-0.47-0.4-1.36-0.6-2.66-0.6h-3.13V78.39L36.98,78.39z M68.96,88.25H60.9l-1.16,3.79h-7.26l8.66-23.01h7.78l8.62,23.01h-7.44 L68.96,88.25L68.96,88.25z M67.45,83.27L64.94,75l-2.52,8.27H67.45L67.45,83.27z M79.95,92.05V69.04H91.8 c2.2,0,3.88,0.19,5.03,0.57c1.16,0.38,2.1,1.08,2.81,2.09c0.71,1.02,1.07,2.27,1.07,3.74c0,1.27-0.27,2.38-0.82,3.3 c-0.54,0.93-1.29,1.68-2.25,2.26c-0.61,0.36-1.44,0.67-2.5,0.91c0.85,0.28,1.46,0.56,1.85,0.85c0.26,0.19,0.64,0.59,1.14,1.21 c0.49,0.62,0.82,1.09,0.99,1.43l3.45,6.65h-8.03l-3.8-7.02c-0.48-0.91-0.91-1.5-1.29-1.77c-0.51-0.35-1.1-0.53-1.75-0.53h-0.63 v9.32H79.95L79.95,92.05z M87.09,78.39h3c0.32,0,0.95-0.11,1.89-0.32c0.47-0.09,0.86-0.33,1.15-0.72c0.3-0.39,0.45-0.84,0.45-1.34 c0-0.74-0.24-1.32-0.71-1.71c-0.47-0.4-1.35-0.6-2.66-0.6h-3.13V78.39L87.09,78.39z M97.79,57h9.93c4.16,0,7.56,3.41,7.56,7.56 v31.42c0,4.15-3.41,7.56-7.56,7.56h-9.93v13.55c0,1.61-0.65,3.04-1.7,4.1c-1.06,1.06-2.49,1.7-4.1,1.7c-29.44,0-56.59,0-86.18,0 c-1.61,0-3.04-0.64-4.1-1.7c-1.06-1.06-1.7-2.49-1.7-4.1V5.85c0-1.61,0.65-3.04,1.7-4.1c1.06-1.06,2.53-1.7,4.1-1.7h58.72 C64.66,0,64.8,0,64.94,0c0.64,0,1.29,0.28,1.75,0.69h0.09c0.09,0.05,0.14,0.09,0.23,0.18l29.99,30.36c0.51,0.51,0.88,1.2,0.88,1.98 c0,0.23-0.05,0.41-0.09,0.65V57L97.79,57z M67.52,27.97V8.94l21.43,21.7H70.19c-0.74,0-1.38-0.32-1.89-0.78 C67.84,29.4,67.52,28.71,67.52,27.97L67.52,27.97z"/></g></svg>