<?xml version="1.0" encoding="iso-8859-1"?>
<!-- Generator: Adobe Illustrator 19.0.0, SVG Export Plug-In . SVG Version: 6.00 Build 0)  -->
<svg version="1.1" id="Layer_1" xmlns="http://www.w3.org/2000/svg" xmlns:xlink="http://www.w3.org/1999/xlink" x="0px" y="0px"
	 viewBox="0 0 512 512" style="enable-background:new 0 0 512 512;" xml:space="preserve">
<path style="fill:#BC5EB0;" d="M511.344,274.266C511.77,268.231,512,262.143,512,256C512,114.615,397.385,0,256,0S0,114.615,0,256
	c0,117.769,79.53,216.949,187.809,246.801L511.344,274.266z"/>
<path style="fill:#AA3399;" d="M511.344,274.266L314.991,77.913L119.096,434.087l68.714,68.714C209.522,508.787,232.385,512,256,512
	C391.243,512,501.976,407.125,511.344,274.266z"/>
<polygon style="fill:#FFFFFF;" points="278.328,333.913 255.711,77.913 119.096,77.913 119.096,311.652 "/>
<polygon style="fill:#E8E6E6;" points="392.904,311.652 392.904,155.826 337.252,133.565 314.991,77.913 255.711,77.913 
	256.067,333.913 "/>
<polygon style="fill:#FFFFFF;" points="314.991,155.826 314.991,77.913 392.904,155.826 "/>
<rect x="119.096" y="311.652" style="fill:#610353;" width="273.809" height="122.435"/>
<g>
	<path style="fill:#FFFFFF;" d="M199.535,384.453h-0.378H188.94v14.909h-13.471v-52.975h23.687c14.001,0,22.023,6.659,22.023,18.465
		c0,8.097-3.406,13.925-9.611,17.027l11.125,17.483h-15.287L199.535,384.453z M199.157,373.858c5.828,0,9.233-2.952,9.233-8.552
		c0-5.525-3.405-8.324-9.233-8.324H188.94v16.877h10.217V373.858z"/>
	<path style="fill:#FFFFFF;" d="M244.192,389.6l-3.859,9.763h-13.851l22.855-52.975h13.848l22.327,52.975h-14.379l-3.783-9.763
		H244.192z M255.846,359.781l-7.72,19.601h15.288L255.846,359.781z"/>
	<path style="fill:#FFFFFF;" d="M316.396,384.453h-0.378H305.8v14.909h-13.47v-52.975h23.688c14,0,22.022,6.659,22.022,18.465
		c0,8.097-3.406,13.925-9.611,17.027l11.125,17.483h-15.288L316.396,384.453z M316.018,373.858c5.826,0,9.233-2.952,9.233-8.552
		c0-5.525-3.407-8.324-9.233-8.324H305.8v16.877h10.218V373.858z"/>
</g>
<g>
</g>
<g>
</g>
<g>
</g>
<g>
</g>
<g>
</g>
<g>
</g>
<g>
</g>
<g>
</g>
<g>
</g>
<g>
</g>
<g>
</g>
<g>
</g>
<g>
</g>
<g>
</g>
<g>
</g>
</svg>
